<?xml version="1.0" encoding="UTF-8"?>
<!-- Do not edit this file with editors other than diagrams.net -->
<!DOCTYPE svg PUBLIC "-//W3C//DTD SVG 1.1//EN" "http://www.w3.org/Graphics/SVG/1.1/DTD/svg11.dtd">
<svg xmlns="http://www.w3.org/2000/svg" xmlns:xlink="http://www.w3.org/1999/xlink" version="1.1" width="621px" height="281px" viewBox="-0.5 -0.5 621 281" content="&lt;mxfile host=&quot;app.diagrams.net&quot; modified=&quot;2022-09-08T05:48:52.064Z&quot; agent=&quot;5.0 (Macintosh; Intel Mac OS X 10_15_7) AppleWebKit/537.36 (KHTML, like Gecko) Chrome/103.0.0.0 Safari/537.36&quot; etag=&quot;51hwiL8HRXLa9mBzXE3W&quot; version=&quot;20.2.8&quot; type=&quot;github&quot;&gt;&lt;diagram id=&quot;R2lEEEUBdFMjLlhIrx00&quot; name=&quot;Page-1&quot;&gt;7Z1tb5s6FMc/DdL2YhXhoSUvA0k36XZ3U9dpu6+uvOAE6wJGxm2Tffprgw0kTlPoUtIET5mKD8bAOX/zwyeYGHaQrD4SkEWfcQhjwzLDlWFPDcsaOdYl+8Mt69JydTkuDUuCQlGpNnxDv6EwmsJ6j0KYb1SkGMcUZZvGOU5TOKcbNkAIftystsDx5l4zsISK4dscxKr1BwppVFo916ztnyBaRnLPI1OsSYCsLAx5BEL8uGGCK3qNUyoO8SskCUhhStmaz4D8B4nhziJK+ZlODOuafRa89sUS42UMQYbyizlOmHmesyrXC5CgmLu50ZAvGmK7s2eGHRCMabmUrAIY81jJMJTHdP3E2soPhLfbYoP7u+8Pk+jLj8x0wd+ZlWaXq7sPopUHEN8L/04IRXPmbMt8Z8wmhm8ZXmDMAsPzjXFQWDzDM98LF9K1jAvzZsYXKfjFTX5OAaFCPrbJDEwQFKCUnbs9HRXlOAZZjorqpSVCcXgD1vieyoZkyV+gFQxvS/XwukxIN6wxXuSN8zh8EwfDV4MYLVO2PGfO4Xv0CczZsdyAnIoaqvukLyChcNUwCXd+hDiBlKxZFbFWak70pEtRfKxlaV0JW9SQpOUJIxA6W1Yt1+FjCyKCHaJpKdHcH6ZbLn8/wgT95sGJhTOboSvKjyiJmX4/QRBumXxcXEeKEKA4DnCMeXxTnEIlxLxSSHB2B8gSUmHIMBL9zfXZh3kmMC9cw2XHGrDyqC6zD69OaIDTnBImJd4GZBF9hDyqPsWZaDSGC9k+EX7ny78wpax7PhX/vR3keVEIFdgtVWC/lghsRQRf/3pSBuz8KQLxLbtSg3QZl0ErLtygDtqOyO70deXfbcdv907M3LmIi2tvhMIQpu3jYbWORyMAdkf/i8Zqr3RuDcTsspMCyjrIfRrmSlCr43x5nB0lzqy6ZX5g/3+hJe8dxw26vASXdf08A3OULm/KLS+3VOH2pYrV073UOahKWjXXg0xczYRWTDBfkQlt7wxejQmX7UXQz8UBhki294dAcFsH49yBcKUEmSIq7+QDY2IWN/C+MZkYk/F7gYoHQOYRIO8s1336nv6NAGOXSjZvLQ4tmcHRwtO0ODotxsemxfh8aeG1Dsa500Lm8xpR5hmaMtv1jnPCt3muhwMjYAvbwBiZ7N9gkNFeN4NDxkjNIWpm9M2MkXVsaIw6JB9PjRqj9vE4e2yo6cUI5BEFyxIbU2PsGr7T+MZgani2/OrgagdITnXkcXjtDA8dag5To6N3dLhHR0eHHOXJocNpHY+zR4eahZwTyHYZTqhMUnFUTIsFx2B9iS2wol9/AS3hEbLNKErgKYLjJeOPDjIaHkXUxKemSO8U8Y5OkQ65y5OjyFXreJw9RdTspKCIv95DkZkxNneksE5y5PEigLRX0OAAInMnGiBHBEj1gOnRAGJ1SGSeGkAqiWuAyKg2wpzgEC3QxjjEM8ae/Nbc1eOQF+hoeBhRU6MaI71jxDk6RjokNU8OI3breJw9RtSkpcRIYyCiYmToA5EOEhoeQdQMqZiOE+AkaTya4TEh2XoyTlMljuyQe565dVw1zNUsnsODQOcl290PdJiOU/WQP5qPs0sHr3c/oOYlz2pCjk5NVq5QU5MDnpJzkITjqGNPfYbzbZrrQShyl5oMhxspdidD2zuE15upqSYcr49NhsONFSuRazDYasoRlPf1/xaA2DfTvmhbDhhPgyKHGip2UNDwEKKTjW8AIbum6vSLkDNONto62Vi5Qk02dpqs4w4owdhBNsOjRoepfZoar0WNnZN1esWG02EAenLYGLeOx7ljw1EHmPqJ68PLaHAYcdTxrMZI/xjZNXGnX4x0GISeGkYqjWuMOOogUz9yfVAFDY8g+rVkb4Eguybt9EuQM34zmaNfTVa5Qn0URj9z3ZojB3lf2ZlyRL+w7A1wZOfcnX45csbvLHP0S8uqNzeqeUv90PVhJTQ4hLgthiIwXELpc+ZpRNe3MAYU4XRWrykjUzJkZHHK0CQW3R+m4YT/+AUrzm5/Q4Lv8GeQriV56nUJSMMvhZQIP2Mo6QNXiP6UjbHlf7j9whWl6apRbSrxxI6UrH82C42teLHerCjJ7VRRCZ3l+J7M4R5fypcdUcm7pyrK7Cp3bNsrWvVLHk3BVEZSBOQBbhzwHlV+xcWTNFLv1RQAOTQabymxPHexVa1CpSFnvNmQPdpqqPSN0tDzcmbF+tdCyur1T7zYs/8B&lt;/diagram&gt;&lt;/mxfile&gt;" resource="https://app.diagrams.net/#Hwoong99%2Ffastcampus-project-board%2Ffeature%252F%252310-db%2Fdocument%2Fproject-board-erd.svg"><defs><clipPath id="mx-clip-0-30-30-30-0"><rect x="0" y="30" width="30" height="30"/></clipPath><clipPath id="mx-clip-36-30-234-30-0"><rect x="36" y="30" width="234" height="30"/></clipPath><clipPath id="mx-clip-36-60-234-30-0"><rect x="36" y="60" width="234" height="30"/></clipPath><clipPath id="mx-clip-36-90-234-30-0"><rect x="36" y="90" width="234" height="30"/></clipPath><clipPath id="mx-clip-36-120-234-30-0"><rect x="36" y="120" width="234" height="30"/></clipPath><clipPath id="mx-clip-36-150-234-30-0"><rect x="36" y="150" width="234" height="30"/></clipPath><clipPath id="mx-clip-36-180-234-30-0"><rect x="36" y="180" width="234" height="30"/></clipPath><clipPath id="mx-clip-36-210-234-30-0"><rect x="36" y="210" width="234" height="30"/></clipPath><clipPath id="mx-clip-36-240-234-30-0"><rect x="36" y="240" width="234" height="30"/></clipPath><clipPath id="mx-clip-375-30-30-30-0"><rect x="375" y="30" width="30" height="30"/></clipPath><clipPath id="mx-clip-411-30-209-30-0"><rect x="411" y="30" width="209" height="30"/></clipPath><clipPath id="mx-clip-375-60-30-30-0"><rect x="375" y="60" width="30" height="30"/></clipPath><clipPath id="mx-clip-411-60-209-30-0"><rect x="411" y="60" width="209" height="30"/></clipPath><clipPath id="mx-clip-411-90-209-30-0"><rect x="411" y="90" width="209" height="30"/></clipPath><clipPath id="mx-clip-411-120-209-30-0"><rect x="411" y="120" width="209" height="30"/></clipPath><clipPath id="mx-clip-411-150-209-30-0"><rect x="411" y="150" width="209" height="30"/></clipPath><clipPath id="mx-clip-411-180-209-30-0"><rect x="411" y="180" width="209" height="30"/></clipPath><clipPath id="mx-clip-411-210-209-30-0"><rect x="411" y="210" width="209" height="30"/></clipPath></defs><g><path d="M 0 30 L 0 0 L 270 0 L 270 30" fill="rgb(255, 255, 255)" stroke="rgb(0, 0, 0)" stroke-miterlimit="10" pointer-events="all"/><path d="M 0 30 L 0 280 L 270 280 L 270 30" fill="none" stroke="rgb(0, 0, 0)" stroke-miterlimit="10" pointer-events="none"/><path d="M 0 30 L 270 30" fill="none" stroke="rgb(0, 0, 0)" stroke-miterlimit="10" pointer-events="none"/><path d="M 30 30 L 30 60 L 30 90 L 30 120 L 30 150 L 30 180 L 30 210 L 30 240 L 30 270" fill="none" stroke="rgb(0, 0, 0)" stroke-miterlimit="10" pointer-events="none"/><g fill="rgb(0, 0, 0)" font-family="Helvetica" font-weight="bold" pointer-events="none" text-anchor="middle" font-size="12px"><text x="134.5" y="19.5">Article (게시글)</text></g><path d="M 0 30 M 270 30 M 270 60 L 0 60" fill="none" stroke="rgb(0, 0, 0)" stroke-linecap="square" stroke-miterlimit="10" pointer-events="none"/><path d="M 0 30 M 30 30 M 30 60 M 0 60" fill="none" stroke="rgb(0, 0, 0)" stroke-linecap="square" stroke-miterlimit="10" pointer-events="none"/><g fill="rgb(0, 0, 0)" font-family="Helvetica" font-weight="bold" pointer-events="none" clip-path="url(#mx-clip-0-30-30-30-0)" text-anchor="middle" font-size="12px"><text x="14.5" y="49.5">PK</text></g><path d="M 30 30 M 270 30 M 270 60 M 30 60" fill="none" stroke="rgb(0, 0, 0)" stroke-linecap="square" stroke-miterlimit="10" pointer-events="none"/><g fill="rgb(0, 0, 0)" font-family="Helvetica" font-weight="bold" text-decoration="underline" pointer-events="none" clip-path="url(#mx-clip-36-30-234-30-0)" font-size="12px"><text x="37.5" y="49.5">id - bigint</text></g><path d="M 0 60 M 30 60 M 30 90 M 0 90" fill="none" stroke="rgb(0, 0, 0)" stroke-linecap="square" stroke-miterlimit="10" pointer-events="none"/><path d="M 30 60 M 270 60 M 270 90 M 30 90" fill="none" stroke="rgb(0, 0, 0)" stroke-linecap="square" stroke-miterlimit="10" pointer-events="none"/><g fill="rgb(0, 0, 0)" font-family="Helvetica" font-weight="bold" pointer-events="none" clip-path="url(#mx-clip-36-60-234-30-0)" font-size="12px"><text x="37.5" y="79.5">title (제목) - varchar(255)</text></g><path d="M 0 90 M 30 90 M 30 120 M 0 120" fill="none" stroke="rgb(0, 0, 0)" stroke-linecap="square" stroke-miterlimit="10" pointer-events="none"/><path d="M 30 90 M 270 90 M 270 120 M 30 120" fill="none" stroke="rgb(0, 0, 0)" stroke-linecap="square" stroke-miterlimit="10" pointer-events="none"/><g fill="rgb(0, 0, 0)" font-family="Helvetica" font-weight="bold" pointer-events="none" clip-path="url(#mx-clip-36-90-234-30-0)" font-size="12px"><text x="37.5" y="109.5">content (본문) - varchar(10000)</text></g><path d="M 0 120 M 30 120 M 30 150 M 0 150" fill="none" stroke="rgb(0, 0, 0)" stroke-linecap="square" stroke-miterlimit="10" pointer-events="none"/><path d="M 30 120 M 270 120 M 270 150 M 30 150" fill="none" stroke="rgb(0, 0, 0)" stroke-linecap="square" stroke-miterlimit="10" pointer-events="none"/><g fill="rgb(0, 0, 0)" font-family="Helvetica" pointer-events="none" clip-path="url(#mx-clip-36-120-234-30-0)" font-size="12px"><text x="37.5" y="139.5">hashtag (해시태그) - varchar(255)</text></g><path d="M 0 150 M 30 150 M 30 180 M 0 180" fill="none" stroke="rgb(0, 0, 0)" stroke-linecap="square" stroke-miterlimit="10" pointer-events="none"/><path d="M 30 150 M 270 150 M 270 180 M 30 180" fill="none" stroke="rgb(0, 0, 0)" stroke-linecap="square" stroke-miterlimit="10" pointer-events="none"/><g fill="rgb(0, 0, 0)" font-family="Helvetica" font-weight="bold" pointer-events="none" clip-path="url(#mx-clip-36-150-234-30-0)" font-size="12px"><text x="37.5" y="169.5">createdAt (생성일시) - datetime</text></g><path d="M 0 180 M 30 180 M 30 210 M 0 210" fill="none" stroke="rgb(0, 0, 0)" stroke-linecap="square" stroke-miterlimit="10" pointer-events="none"/><path d="M 30 180 M 270 180 M 270 210 M 30 210" fill="none" stroke="rgb(0, 0, 0)" stroke-linecap="square" stroke-miterlimit="10" pointer-events="none"/><g fill="rgb(0, 0, 0)" font-family="Helvetica" font-weight="bold" pointer-events="none" clip-path="url(#mx-clip-36-180-234-30-0)" font-size="12px"><text x="37.5" y="199.5">createdBy (생성자) - varchar(100)</text></g><path d="M 0 210 M 30 210 M 30 240 M 0 240" fill="none" stroke="rgb(0, 0, 0)" stroke-linecap="square" stroke-miterlimit="10" pointer-events="none"/><path d="M 30 210 M 270 210 M 270 240 M 30 240" fill="none" stroke="rgb(0, 0, 0)" stroke-linecap="square" stroke-miterlimit="10" pointer-events="none"/><g fill="rgb(0, 0, 0)" font-family="Helvetica" font-weight="bold" pointer-events="none" clip-path="url(#mx-clip-36-210-234-30-0)" font-size="12px"><text x="37.5" y="229.5">modifiedAt (수정일시) - datetime</text></g><path d="M 0 240 M 30 240 M 30 270 M 0 270" fill="none" stroke="rgb(0, 0, 0)" stroke-linecap="square" stroke-miterlimit="10" pointer-events="none"/><path d="M 30 240 M 270 240 M 270 270 M 30 270" fill="none" stroke="rgb(0, 0, 0)" stroke-linecap="square" stroke-miterlimit="10" pointer-events="none"/><g fill="rgb(0, 0, 0)" font-family="Helvetica" font-weight="bold" pointer-events="none" clip-path="url(#mx-clip-36-240-234-30-0)" font-size="12px"><text x="37.5" y="259.5">modifiedBy (수정자) - varchar(100)</text></g><path d="M 375 30 L 375 0 L 620 0 L 620 30" fill="rgb(255, 255, 255)" stroke="rgb(0, 0, 0)" stroke-miterlimit="10" pointer-events="none"/><path d="M 375 30 L 375 250 L 620 250 L 620 30" fill="none" stroke="rgb(0, 0, 0)" stroke-miterlimit="10" pointer-events="none"/><path d="M 375 30 L 620 30" fill="none" stroke="rgb(0, 0, 0)" stroke-miterlimit="10" pointer-events="none"/><path d="M 405 30 L 405 60 L 405 90 L 405 120 L 405 150 L 405 180 L 405 210 L 405 240" fill="none" stroke="rgb(0, 0, 0)" stroke-miterlimit="10" pointer-events="none"/><g fill="rgb(0, 0, 0)" font-family="Helvetica" font-weight="bold" pointer-events="none" text-anchor="middle" font-size="12px"><text x="497" y="19.5">ArticleComment (댓글)</text></g><path d="M 375 30 M 620 30 M 620 60 L 375 60" fill="none" stroke="rgb(0, 0, 0)" stroke-linecap="square" stroke-miterlimit="10" pointer-events="none"/><path d="M 375 30 M 405 30 M 405 60 M 375 60" fill="none" stroke="rgb(0, 0, 0)" stroke-linecap="square" stroke-miterlimit="10" pointer-events="none"/><g fill="rgb(0, 0, 0)" font-family="Helvetica" font-weight="bold" pointer-events="none" clip-path="url(#mx-clip-375-30-30-30-0)" text-anchor="middle" font-size="12px"><text x="389.5" y="49.5">PK</text></g><path d="M 405 30 M 620 30 M 620 60 M 405 60" fill="none" stroke="rgb(0, 0, 0)" stroke-linecap="square" stroke-miterlimit="10" pointer-events="none"/><g fill="rgb(0, 0, 0)" font-family="Helvetica" font-weight="bold" text-decoration="underline" pointer-events="none" clip-path="url(#mx-clip-411-30-209-30-0)" font-size="12px"><text x="412.5" y="49.5">id - bigint</text></g><path d="M 375 60 M 405 60 M 405 90 M 375 90" fill="none" stroke="rgb(0, 0, 0)" stroke-linecap="square" stroke-miterlimit="10" pointer-events="none"/><g fill="rgb(0, 0, 0)" font-family="Helvetica" pointer-events="none" clip-path="url(#mx-clip-375-60-30-30-0)" text-anchor="middle" font-size="12px"><text x="389.5" y="79.5">FK</text></g><path d="M 405 60 M 620 60 M 620 90 M 405 90" fill="none" stroke="rgb(0, 0, 0)" stroke-linecap="square" stroke-miterlimit="10" pointer-events="none"/><g fill="rgb(0, 0, 0)" font-family="Helvetica" font-weight="bold" pointer-events="none" clip-path="url(#mx-clip-411-60-209-30-0)" font-size="12px"><text x="412.5" y="79.5">article_id (게시글 id) - bigint</text></g><path d="M 375 90 M 405 90 M 405 120 M 375 120" fill="none" stroke="rgb(0, 0, 0)" stroke-linecap="square" stroke-miterlimit="10" pointer-events="none"/><path d="M 405 90 M 620 90 M 620 120 M 405 120" fill="none" stroke="rgb(0, 0, 0)" stroke-linecap="square" stroke-miterlimit="10" pointer-events="none"/><g fill="rgb(0, 0, 0)" font-family="Helvetica" font-weight="bold" pointer-events="none" clip-path="url(#mx-clip-411-90-209-30-0)" font-size="12px"><text x="412.5" y="109.5">content (본문) - varchar(500)</text></g><path d="M 375 120 M 405 120 M 405 150 M 375 150" fill="none" stroke="rgb(0, 0, 0)" stroke-linecap="square" stroke-miterlimit="10" pointer-events="none"/><path d="M 405 120 M 620 120 M 620 150 M 405 150" fill="none" stroke="rgb(0, 0, 0)" stroke-linecap="square" stroke-miterlimit="10" pointer-events="none"/><g fill="rgb(0, 0, 0)" font-family="Helvetica" font-weight="bold" pointer-events="none" clip-path="url(#mx-clip-411-120-209-30-0)" font-size="12px"><text x="412.5" y="139.5">createdAt (생성일시) - datetime</text></g><path d="M 375 150 M 405 150 M 405 180 M 375 180" fill="none" stroke="rgb(0, 0, 0)" stroke-linecap="square" stroke-miterlimit="10" pointer-events="none"/><path d="M 405 150 M 620 150 M 620 180 M 405 180" fill="none" stroke="rgb(0, 0, 0)" stroke-linecap="square" stroke-miterlimit="10" pointer-events="none"/><g fill="rgb(0, 0, 0)" font-family="Helvetica" font-weight="bold" pointer-events="none" clip-path="url(#mx-clip-411-150-209-30-0)" font-size="12px"><text x="412.5" y="169.5">createdBy (생성자) - varchar(100)</text></g><path d="M 375 180 M 405 180 M 405 210 M 375 210" fill="none" stroke="rgb(0, 0, 0)" stroke-linecap="square" stroke-miterlimit="10" pointer-events="none"/><path d="M 405 180 M 620 180 M 620 210 M 405 210" fill="none" stroke="rgb(0, 0, 0)" stroke-linecap="square" stroke-miterlimit="10" pointer-events="none"/><g fill="rgb(0, 0, 0)" font-family="Helvetica" font-weight="bold" pointer-events="none" clip-path="url(#mx-clip-411-180-209-30-0)" font-size="12px"><text x="412.5" y="199.5">modifiedAt (수정일시) - datetime</text></g><path d="M 375 210 M 405 210 M 405 240 M 375 240" fill="none" stroke="rgb(0, 0, 0)" stroke-linecap="square" stroke-miterlimit="10" pointer-events="none"/><path d="M 405 210 M 620 210 M 620 240 M 405 240" fill="none" stroke="rgb(0, 0, 0)" stroke-linecap="square" stroke-miterlimit="10" pointer-events="none"/><g fill="rgb(0, 0, 0)" font-family="Helvetica" font-weight="bold" pointer-events="none" clip-path="url(#mx-clip-411-210-209-30-0)" font-size="12px"><text x="412.5" y="229.5">modifiedBy (수정자) - varchar(100)</text></g><path d="M 270 135 L 300 135 L 345 135 L 375 135" fill="none" stroke="rgb(0, 0, 0)" stroke-miterlimit="10" pointer-events="none"/><path d="M 274 131 L 274 139 M 278 131 L 278 139" fill="none" stroke="rgb(0, 0, 0)" stroke-miterlimit="10" pointer-events="none"/><ellipse cx="363" cy="135" rx="3" ry="3" fill="#ffffff" stroke="rgb(0, 0, 0)" pointer-events="none"/><path d="M 375 131 L 367 135 L 375 139" fill="none" stroke="rgb(0, 0, 0)" stroke-miterlimit="10" pointer-events="none"/></g></svg>