<?xml version="1.0" encoding="UTF-8"?>
<!-- Do not edit this file with editors other than diagrams.net -->
<!DOCTYPE svg PUBLIC "-//W3C//DTD SVG 1.1//EN" "http://www.w3.org/Graphics/SVG/1.1/DTD/svg11.dtd">
<svg xmlns="http://www.w3.org/2000/svg" xmlns:xlink="http://www.w3.org/1999/xlink" version="1.1" width="621px" height="281px" viewBox="-0.5 -0.5 621 281" content="&lt;mxfile host=&quot;app.diagrams.net&quot; modified=&quot;2022-09-08T04:18:07.298Z&quot; agent=&quot;5.0 (Macintosh; Intel Mac OS X 10_15_7) AppleWebKit/537.36 (KHTML, like Gecko) Chrome/103.0.0.0 Safari/537.36&quot; etag=&quot;6nJtzLoIQQAcMuokeFL5&quot; version=&quot;20.2.8&quot; type=&quot;github&quot;&gt;&lt;diagram id=&quot;R2lEEEUBdFMjLlhIrx00&quot; name=&quot;Page-1&quot;&gt;7Z3vc6I4GMf/mszsvtgOPy2+FLW3M9fedrq92b1XN1mJmjkgTkhb3b/+EkhEjVjYKnYNM3ZKHsID5PmGD3kkCNxhsvyDwsX8jkQoBo4VLYE7Ao5je06P/xOWVWG57vULw4ziSFYqDV/xTySNlrQ+4QhlWxUZITHDi23jhKQpmrAtG6SUvGxXm5J4e68LOEOa4esExrr1G47YvLAGvlXaPyM8m6s925Zck0BVWRqyOYzIy5YJLdkNSZk8xHtEE5iilPE1d5D+hyjwx3PGxJkOgHPDP1NR+2pGyCxGcIGzqwlJuHmS8So3U5jgWDTzhqNQOuK7c8fAHVJCWLGULIcoFrFSYSiO6aZi7bodqPBbY4Onx7+fB/Mv3xaWD/9aOOmit3z8JL08w/hJtu+AMjzhje1YH8B4AEIHBEMwHoIgBP1hbglAYH2UTchWKi68NRdikcEfwhRmDFIm5eNa3MAFwSBO+bm7IzsvxzFcZDivXljmOI5u4Yo8MeVIlcIpXqLooVCPqMuFdMudiaJwLuLwVR6MWA1jPEv58oQ3jthjSFHGj+UWZkzWkCeOKEPLyha113Hi/QmRBDG64lXkBkpzsif1ZPGllKVzLW3zDUk6gTRCqbPZ2nMZPr4gI9ggmo4WzcNhehDyD+eE4p8iOLFszM3Q5eUXnMRcv58RjHZMIcmvI3kIcBwPSUxEfFOSIi3EolJEyeIR0hli0rAgWPY3P+Qf3jJD68oHPj/WIS/bZZl/RHXKhiTNGOVSEj4Qj+gLElENGVlIpzGaKv9UtrtY/kEY492zQfyr+4wuCqkCt6YK3FOJwNVEcP9npQz4yTIM4wd+pYbpLC6Cll+4YRm0PZHd29br9t1t+N3eSXizT+P82jvHUYTSN8XD2R+PjQC4DdtfOitbpbE3GPPLTgoZ7yBPaZRpQV0f56/H2dPizKs71if+9wPPRO84b9DVJbioG2YLOMHp7LbYsrejCr8tVSyre6l3VJXUcteCTPyOCbWYYJ2QCXXvDE7GhF59EbRzcUARVv6ODwTfTCBca0FmmKk7+SEYWPkNfAgGAzDof5SoeIZ0Mof0g+P71ff07wQY+1SyfWtxbMkYR4ugo8XZadE/Ny36RtEiMJMWKp+3EWWRoSmyXR8EJwIHhJ4gR38fMHq+7xqNjArdGIcMW88hdsxomxm2c25o2A2SjxdADbsiHhePDT29OIfZnMFZgY0R6PsSG/IbgxEIXPXVwTUIg0sZeRxfO+ahQ89hduhoHR3+2dHRIEd5CejwDEWHnoWcUMR3GQ2YSlIJVIzyBQ/wviQGHyMQll9AK3hEfDOGE/Q7guNI448qGZlHET3x2VGkdYoEZ6dIg9zlJVDk2lCK6NlJSZFwdYAiY9C3dkcetnXgOSYDAFKhIOMAonInHUDOCJD1A6ZnA4jTIJF5AQApVG8eQFRUN8KckAhP8dY4JAD9QH1r7nfjkF/QkXkY0VOjHUZax4h3dow0SGpeAkZcQzGiJy0VRjYGIjpGuoFIbQmZRxA9Qyqn4wxJkmw+msGF5HaTcTZV4qkOeeCZW8/Xw7yexXN8EHR5yXr3A2+bjlN0msobgr1Xjz06ON39gJ6XvPQJOYamJh09NdlNyamhiwOctxv21Fc4X8ddC0JRu+zIcNKR4itkqHuHcLqZmnrC8ebcZDjpWNE1NOXo6ilHWNzX/5sD4tBM+9y3GjD+HhQ54VCxSkHmIaRLNr4DhOybqtMuQsxKNrqGJhtdPdnYaLKOY5mdYazSjXnYaDC3r8PGqbCxd7ZOq9zwGoxAL4EbfTO54ekjzO6R6+PLyDiMePqAtsNI+xjZN3OnXYw0GIVeAEYK2RuIEX2U2T1zfVQFmUeQ7r1k74Eg+2bttEsQs15N5hn6bjJPfxame+j6LRxp/sKyC+VI98ayd8CRvZN32uWIWS8t8wx9a5ka8XZPXb8dIc1fYHaZCPFrDEVQNEOqzXmzYrZ6QDFkmKTjck0RmYIhtiMow5JYdn+URgPx6xe8OH74iSh5JHcwXSnylOsSmEZfcilRccZI0QctMfuunPHlf4T9ypel0XKj2kjhiR8pXX3fLGxsJYrlZnlJbVecvjjnSklJU0ae6AQdaFz1djimAFhVsUaKfv1THpuCWRtpHpDn7UM+oMp7kj9Ko/S+ngOghkb9HSUWpyq3KlWoOfL6245ce8dR0RSao9flzIvlz4UU1cvfeHHH/wM=&lt;/diagram&gt;&lt;/mxfile&gt;" resource="https://app.diagrams.net/#Hwoong99%2Ffastcampus-project-board%2Ffeature%252F%25238-domain%2Fdocument%2Fproject-board-erd.svg"><defs><clipPath id="mx-clip-0-30-30-30-0"><rect x="0" y="30" width="30" height="30"/></clipPath><clipPath id="mx-clip-36-30-234-30-0"><rect x="36" y="30" width="234" height="30"/></clipPath><clipPath id="mx-clip-36-60-234-30-0"><rect x="36" y="60" width="234" height="30"/></clipPath><clipPath id="mx-clip-36-90-234-30-0"><rect x="36" y="90" width="234" height="30"/></clipPath><clipPath id="mx-clip-36-120-234-30-0"><rect x="36" y="120" width="234" height="30"/></clipPath><clipPath id="mx-clip-36-150-234-30-0"><rect x="36" y="150" width="234" height="30"/></clipPath><clipPath id="mx-clip-36-180-234-30-0"><rect x="36" y="180" width="234" height="30"/></clipPath><clipPath id="mx-clip-36-210-234-30-0"><rect x="36" y="210" width="234" height="30"/></clipPath><clipPath id="mx-clip-36-240-234-30-0"><rect x="36" y="240" width="234" height="30"/></clipPath><clipPath id="mx-clip-375-30-30-30-0"><rect x="375" y="30" width="30" height="30"/></clipPath><clipPath id="mx-clip-411-30-209-30-0"><rect x="411" y="30" width="209" height="30"/></clipPath><clipPath id="mx-clip-375-60-30-30-0"><rect x="375" y="60" width="30" height="30"/></clipPath><clipPath id="mx-clip-411-60-209-30-0"><rect x="411" y="60" width="209" height="30"/></clipPath><clipPath id="mx-clip-411-90-209-30-0"><rect x="411" y="90" width="209" height="30"/></clipPath><clipPath id="mx-clip-411-120-209-30-0"><rect x="411" y="120" width="209" height="30"/></clipPath><clipPath id="mx-clip-411-150-209-30-0"><rect x="411" y="150" width="209" height="30"/></clipPath><clipPath id="mx-clip-411-180-209-30-0"><rect x="411" y="180" width="209" height="30"/></clipPath><clipPath id="mx-clip-411-210-209-30-0"><rect x="411" y="210" width="209" height="30"/></clipPath></defs><g><path d="M 0 30 L 0 0 L 270 0 L 270 30" fill="rgb(255, 255, 255)" stroke="rgb(0, 0, 0)" stroke-miterlimit="10" pointer-events="all"/><path d="M 0 30 L 0 280 L 270 280 L 270 30" fill="none" stroke="rgb(0, 0, 0)" stroke-miterlimit="10" pointer-events="none"/><path d="M 0 30 L 270 30" fill="none" stroke="rgb(0, 0, 0)" stroke-miterlimit="10" pointer-events="none"/><path d="M 30 30 L 30 60 L 30 90 L 30 120 L 30 150 L 30 180 L 30 210 L 30 240 L 30 270" fill="none" stroke="rgb(0, 0, 0)" stroke-miterlimit="10" pointer-events="none"/><g fill="rgb(0, 0, 0)" font-family="Helvetica" font-weight="bold" pointer-events="none" text-anchor="middle" font-size="12px"><text x="134.5" y="19.5">Article (게시글)</text></g><path d="M 0 30 M 270 30 M 270 60 L 0 60" fill="none" stroke="rgb(0, 0, 0)" stroke-linecap="square" stroke-miterlimit="10" pointer-events="none"/><path d="M 0 30 M 30 30 M 30 60 M 0 60" fill="none" stroke="rgb(0, 0, 0)" stroke-linecap="square" stroke-miterlimit="10" pointer-events="none"/><g fill="rgb(0, 0, 0)" font-family="Helvetica" font-weight="bold" pointer-events="none" clip-path="url(#mx-clip-0-30-30-30-0)" text-anchor="middle" font-size="12px"><text x="14.5" y="49.5">PK</text></g><path d="M 30 30 M 270 30 M 270 60 M 30 60" fill="none" stroke="rgb(0, 0, 0)" stroke-linecap="square" stroke-miterlimit="10" pointer-events="none"/><g fill="rgb(0, 0, 0)" font-family="Helvetica" font-weight="bold" text-decoration="underline" pointer-events="none" clip-path="url(#mx-clip-36-30-234-30-0)" font-size="12px"><text x="37.5" y="49.5">id - bigint</text></g><path d="M 0 60 M 30 60 M 30 90 M 0 90" fill="none" stroke="rgb(0, 0, 0)" stroke-linecap="square" stroke-miterlimit="10" pointer-events="none"/><path d="M 30 60 M 270 60 M 270 90 M 30 90" fill="none" stroke="rgb(0, 0, 0)" stroke-linecap="square" stroke-miterlimit="10" pointer-events="none"/><g fill="rgb(0, 0, 0)" font-family="Helvetica" font-weight="bold" pointer-events="none" clip-path="url(#mx-clip-36-60-234-30-0)" font-size="12px"><text x="37.5" y="79.5">title (제목) - varchar(255)</text></g><path d="M 0 90 M 30 90 M 30 120 M 0 120" fill="none" stroke="rgb(0, 0, 0)" stroke-linecap="square" stroke-miterlimit="10" pointer-events="none"/><path d="M 30 90 M 270 90 M 270 120 M 30 120" fill="none" stroke="rgb(0, 0, 0)" stroke-linecap="square" stroke-miterlimit="10" pointer-events="none"/><g fill="rgb(0, 0, 0)" font-family="Helvetica" font-weight="bold" pointer-events="none" clip-path="url(#mx-clip-36-90-234-30-0)" font-size="12px"><text x="37.5" y="109.5">content (내용) - varchar(65535)</text></g><path d="M 0 120 M 30 120 M 30 150 M 0 150" fill="none" stroke="rgb(0, 0, 0)" stroke-linecap="square" stroke-miterlimit="10" pointer-events="none"/><path d="M 30 120 M 270 120 M 270 150 M 30 150" fill="none" stroke="rgb(0, 0, 0)" stroke-linecap="square" stroke-miterlimit="10" pointer-events="none"/><g fill="rgb(0, 0, 0)" font-family="Helvetica" pointer-events="none" clip-path="url(#mx-clip-36-120-234-30-0)" font-size="12px"><text x="37.5" y="139.5">hashtag (해시태그) - varchar(255)</text></g><path d="M 0 150 M 30 150 M 30 180 M 0 180" fill="none" stroke="rgb(0, 0, 0)" stroke-linecap="square" stroke-miterlimit="10" pointer-events="none"/><path d="M 30 150 M 270 150 M 270 180 M 30 180" fill="none" stroke="rgb(0, 0, 0)" stroke-linecap="square" stroke-miterlimit="10" pointer-events="none"/><g fill="rgb(0, 0, 0)" font-family="Helvetica" font-weight="bold" pointer-events="none" clip-path="url(#mx-clip-36-150-234-30-0)" font-size="12px"><text x="37.5" y="169.5">createdAt (생성일시) - datetime</text></g><path d="M 0 180 M 30 180 M 30 210 M 0 210" fill="none" stroke="rgb(0, 0, 0)" stroke-linecap="square" stroke-miterlimit="10" pointer-events="none"/><path d="M 30 180 M 270 180 M 270 210 M 30 210" fill="none" stroke="rgb(0, 0, 0)" stroke-linecap="square" stroke-miterlimit="10" pointer-events="none"/><g fill="rgb(0, 0, 0)" font-family="Helvetica" font-weight="bold" pointer-events="none" clip-path="url(#mx-clip-36-180-234-30-0)" font-size="12px"><text x="37.5" y="199.5">createdBy (생성자) - varchar(100)</text></g><path d="M 0 210 M 30 210 M 30 240 M 0 240" fill="none" stroke="rgb(0, 0, 0)" stroke-linecap="square" stroke-miterlimit="10" pointer-events="none"/><path d="M 30 210 M 270 210 M 270 240 M 30 240" fill="none" stroke="rgb(0, 0, 0)" stroke-linecap="square" stroke-miterlimit="10" pointer-events="none"/><g fill="rgb(0, 0, 0)" font-family="Helvetica" font-weight="bold" pointer-events="none" clip-path="url(#mx-clip-36-210-234-30-0)" font-size="12px"><text x="37.5" y="229.5">modifiedAt (수정일시) - datetime</text></g><path d="M 0 240 M 30 240 M 30 270 M 0 270" fill="none" stroke="rgb(0, 0, 0)" stroke-linecap="square" stroke-miterlimit="10" pointer-events="none"/><path d="M 30 240 M 270 240 M 270 270 M 30 270" fill="none" stroke="rgb(0, 0, 0)" stroke-linecap="square" stroke-miterlimit="10" pointer-events="none"/><g fill="rgb(0, 0, 0)" font-family="Helvetica" font-weight="bold" pointer-events="none" clip-path="url(#mx-clip-36-240-234-30-0)" font-size="12px"><text x="37.5" y="259.5">modifiedBy (수정자) - varchar(100)</text></g><path d="M 375 30 L 375 0 L 620 0 L 620 30" fill="rgb(255, 255, 255)" stroke="rgb(0, 0, 0)" stroke-miterlimit="10" pointer-events="none"/><path d="M 375 30 L 375 250 L 620 250 L 620 30" fill="none" stroke="rgb(0, 0, 0)" stroke-miterlimit="10" pointer-events="none"/><path d="M 375 30 L 620 30" fill="none" stroke="rgb(0, 0, 0)" stroke-miterlimit="10" pointer-events="none"/><path d="M 405 30 L 405 60 L 405 90 L 405 120 L 405 150 L 405 180 L 405 210 L 405 240" fill="none" stroke="rgb(0, 0, 0)" stroke-miterlimit="10" pointer-events="none"/><g fill="rgb(0, 0, 0)" font-family="Helvetica" font-weight="bold" pointer-events="none" text-anchor="middle" font-size="12px"><text x="497" y="19.5">ArticleComment (댓글)</text></g><path d="M 375 30 M 620 30 M 620 60 L 375 60" fill="none" stroke="rgb(0, 0, 0)" stroke-linecap="square" stroke-miterlimit="10" pointer-events="none"/><path d="M 375 30 M 405 30 M 405 60 M 375 60" fill="none" stroke="rgb(0, 0, 0)" stroke-linecap="square" stroke-miterlimit="10" pointer-events="none"/><g fill="rgb(0, 0, 0)" font-family="Helvetica" font-weight="bold" pointer-events="none" clip-path="url(#mx-clip-375-30-30-30-0)" text-anchor="middle" font-size="12px"><text x="389.5" y="49.5">PK</text></g><path d="M 405 30 M 620 30 M 620 60 M 405 60" fill="none" stroke="rgb(0, 0, 0)" stroke-linecap="square" stroke-miterlimit="10" pointer-events="none"/><g fill="rgb(0, 0, 0)" font-family="Helvetica" font-weight="bold" text-decoration="underline" pointer-events="none" clip-path="url(#mx-clip-411-30-209-30-0)" font-size="12px"><text x="412.5" y="49.5">id - bigint</text></g><path d="M 375 60 M 405 60 M 405 90 M 375 90" fill="none" stroke="rgb(0, 0, 0)" stroke-linecap="square" stroke-miterlimit="10" pointer-events="none"/><g fill="rgb(0, 0, 0)" font-family="Helvetica" pointer-events="none" clip-path="url(#mx-clip-375-60-30-30-0)" text-anchor="middle" font-size="12px"><text x="389.5" y="79.5">FK</text></g><path d="M 405 60 M 620 60 M 620 90 M 405 90" fill="none" stroke="rgb(0, 0, 0)" stroke-linecap="square" stroke-miterlimit="10" pointer-events="none"/><g fill="rgb(0, 0, 0)" font-family="Helvetica" font-weight="bold" pointer-events="none" clip-path="url(#mx-clip-411-60-209-30-0)" font-size="12px"><text x="412.5" y="79.5">article_id (게시글 id) - bigint</text></g><path d="M 375 90 M 405 90 M 405 120 M 375 120" fill="none" stroke="rgb(0, 0, 0)" stroke-linecap="square" stroke-miterlimit="10" pointer-events="none"/><path d="M 405 90 M 620 90 M 620 120 M 405 120" fill="none" stroke="rgb(0, 0, 0)" stroke-linecap="square" stroke-miterlimit="10" pointer-events="none"/><g fill="rgb(0, 0, 0)" font-family="Helvetica" font-weight="bold" pointer-events="none" clip-path="url(#mx-clip-411-90-209-30-0)" font-size="12px"><text x="412.5" y="109.5">content (내용) - varchar(2000)</text></g><path d="M 375 120 M 405 120 M 405 150 M 375 150" fill="none" stroke="rgb(0, 0, 0)" stroke-linecap="square" stroke-miterlimit="10" pointer-events="none"/><path d="M 405 120 M 620 120 M 620 150 M 405 150" fill="none" stroke="rgb(0, 0, 0)" stroke-linecap="square" stroke-miterlimit="10" pointer-events="none"/><g fill="rgb(0, 0, 0)" font-family="Helvetica" font-weight="bold" pointer-events="none" clip-path="url(#mx-clip-411-120-209-30-0)" font-size="12px"><text x="412.5" y="139.5">createdAt (생성일시) - datetime</text></g><path d="M 375 150 M 405 150 M 405 180 M 375 180" fill="none" stroke="rgb(0, 0, 0)" stroke-linecap="square" stroke-miterlimit="10" pointer-events="none"/><path d="M 405 150 M 620 150 M 620 180 M 405 180" fill="none" stroke="rgb(0, 0, 0)" stroke-linecap="square" stroke-miterlimit="10" pointer-events="none"/><g fill="rgb(0, 0, 0)" font-family="Helvetica" font-weight="bold" pointer-events="none" clip-path="url(#mx-clip-411-150-209-30-0)" font-size="12px"><text x="412.5" y="169.5">createdBy (생성자) - varchar(100)</text></g><path d="M 375 180 M 405 180 M 405 210 M 375 210" fill="none" stroke="rgb(0, 0, 0)" stroke-linecap="square" stroke-miterlimit="10" pointer-events="none"/><path d="M 405 180 M 620 180 M 620 210 M 405 210" fill="none" stroke="rgb(0, 0, 0)" stroke-linecap="square" stroke-miterlimit="10" pointer-events="none"/><g fill="rgb(0, 0, 0)" font-family="Helvetica" font-weight="bold" pointer-events="none" clip-path="url(#mx-clip-411-180-209-30-0)" font-size="12px"><text x="412.5" y="199.5">modifiedAt (수정일시) - datetime</text></g><path d="M 375 210 M 405 210 M 405 240 M 375 240" fill="none" stroke="rgb(0, 0, 0)" stroke-linecap="square" stroke-miterlimit="10" pointer-events="none"/><path d="M 405 210 M 620 210 M 620 240 M 405 240" fill="none" stroke="rgb(0, 0, 0)" stroke-linecap="square" stroke-miterlimit="10" pointer-events="none"/><g fill="rgb(0, 0, 0)" font-family="Helvetica" font-weight="bold" pointer-events="none" clip-path="url(#mx-clip-411-210-209-30-0)" font-size="12px"><text x="412.5" y="229.5">modifiedBy (수정자) - varchar(100)</text></g><path d="M 270 135 L 300 135 L 345 135 L 375 135" fill="none" stroke="rgb(0, 0, 0)" stroke-miterlimit="10" pointer-events="none"/><path d="M 274 131 L 274 139 M 278 131 L 278 139" fill="none" stroke="rgb(0, 0, 0)" stroke-miterlimit="10" pointer-events="none"/><ellipse cx="363" cy="135" rx="3" ry="3" fill="#ffffff" stroke="rgb(0, 0, 0)" pointer-events="none"/><path d="M 375 131 L 367 135 L 375 139" fill="none" stroke="rgb(0, 0, 0)" stroke-miterlimit="10" pointer-events="none"/></g></svg>